<svg xmlns:xlink="http://www.w3.org/1999/xlink" xmlns="http://www.w3.org/2000/svg" width="730" height="556"><g fill-rule="nonzero"><path fill="#fff" d="M392.195 130.69h-8.028v124.017h8.028V130.69Zm4.133-15.07a10.869 10.869 0 0 1 10.966 10.73v132.697a11.043 11.043 0 0 1-3.135 7.744 11.032 11.032 0 0 1-7.66 3.329H369.17v-154.5h27.158ZM429.533 254.844h7.96v-41.008h-8.028l.068 41.008Zm-15.064-92.27a10.655 10.655 0 0 1 10.726-10.73H441.9a10.826 10.826 0 0 1 10.068 6.593c.556 1.31.85 2.716.863 4.138v107.34h-15.338v-8.852a11.214 11.214 0 0 1-3.689 6.186 10.25 10.25 0 0 1-7.038 2.666h-1.639a10.797 10.797 0 0 1-10.727-10.731v-49.688a10.845 10.845 0 0 1 3.1-7.691 10.844 10.844 0 0 1 7.627-3.245h1.64a10.863 10.863 0 0 1 10.726 9.26v-41.007h-8.028v22.349H414.4l.07-26.587ZM460.891 270.119v-97.907h15.1v9.056a11.55 11.55 0 0 1 3.415-6.22 10.896 10.896 0 0 1 7.448-2.87h1.64a10.8 10.8 0 0 1 10.727 10.731v87.21h-15.066v-82.836h-8.028v82.836h-15.236ZM530.375 191.69h-8.028v62.983h8.028V191.69Zm4.236-15.07a10.826 10.826 0 0 1 10.068 6.593c.556 1.309.85 2.715.863 4.138v71.765a11.005 11.005 0 0 1-10.93 10.969h-27.33V176.62h27.33ZM552.718 176.996v92.953h26.611v-15.071h-11.546v-23.887h11.546V215.92h-11.546v-23.853h11.546v-15.071zM585.888 171.529v98.42h26.611v-15.071h-11.546v-83.349zM631.664 161.482h-15.065v108.467h15.065zM662.953 165.07h-7.994v89.808h7.994V165.07Zm4.34-15.071a10.658 10.658 0 0 1 9.927 6.614c.536 1.306.807 2.705.798 4.117v98.454a10.66 10.66 0 0 1-10.726 10.765h-16.705a10.97 10.97 0 0 1-10.932-10.765v-98.42a10.84 10.84 0 0 1 6.78-9.945 10.836 10.836 0 0 1 4.152-.786l16.705-.034ZM685.91 270.12V115.552h15.064v9.09a11.767 11.767 0 0 1 3.416-6.185 10.936 10.936 0 0 1 7.447-2.905h1.64a10.801 10.801 0 0 1 10.727 10.765v143.529H709.14V130.623h-8.062V270.12H685.91ZM392.195 410.675h-8.028V534.69h8.028V410.675Zm4.134-15.07a10.866 10.866 0 0 1 10.965 10.73V539.03a11.004 11.004 0 0 1-10.965 10.936H369V395.604h27.33ZM429.533 534.828h7.96v-41.01h-8.028l.068 41.01Zm-15.064-92.27a10.655 10.655 0 0 1 10.726-10.73H441.9a10.826 10.826 0 0 1 10.068 6.593c.556 1.309.85 2.715.863 4.138v107.34h-15.338v-8.852a11.214 11.214 0 0 1-3.689 6.186 10.25 10.25 0 0 1-7.038 2.666h-1.639a10.797 10.797 0 0 1-10.727-10.731v-49.69a10.84 10.84 0 0 1 3.1-7.69 10.829 10.829 0 0 1 7.627-3.244h1.64a10.863 10.863 0 0 1 10.726 9.26v-41.007h-8.028v22.349H414.4l.07-26.587ZM460.894 550v-97.804h15.1v9.09a11.55 11.55 0 0 1 3.415-6.22 10.892 10.892 0 0 1 7.447-2.87h1.64a10.794 10.794 0 0 1 10.726 10.73v87.075h-15.065v-82.734h-8.028V550h-15.235ZM530.375 471.743h-8.028v62.982h8.028v-62.982Zm4.236-15.07a10.816 10.816 0 0 1 7.687 3.1 10.849 10.849 0 0 1 2.381 3.492c.556 1.31.85 2.716.863 4.138v71.765a11.002 11.002 0 0 1-10.931 10.97h-27.329v-93.533l27.33.068ZM552.718 456.981v92.952h26.611v-15.071h-11.546v-23.887h11.546v-15.071h-11.546v-23.853h11.546v-15.07zM585.888 451.513v98.42h26.611v-15.071h-11.546v-83.349zM631.664 441.466h-15.065v108.467h15.065zM662.953 445.054h-7.994v89.808h7.994v-89.808Zm4.34-15.072a10.668 10.668 0 0 1 7.616 3.136 10.673 10.673 0 0 1 3.11 7.63v98.454a10.663 10.663 0 0 1-10.727 10.731h-16.705a10.97 10.97 0 0 1-10.932-10.731v-98.454a10.83 10.83 0 0 1 6.772-9.976 10.846 10.846 0 0 1 4.16-.79h16.705ZM685.91 549.933V395.537h15.064v9.09a11.767 11.767 0 0 1 3.416-6.186 10.93 10.93 0 0 1 7.447-2.904h1.64a10.793 10.793 0 0 1 10.727 10.764V549.83H709.14V410.607h-8.062v139.326H685.91ZM392.231 295.75h-8.062v69.099h8.062v-69.1Zm4.134-15.072a10.845 10.845 0 0 1 7.687 3.102 10.838 10.838 0 0 1 3.244 7.63v77.813a11 11 0 0 1-10.931 10.936h-27.329v-99.446l27.33-.035ZM429.5 392.358h7.993v-49.38h-8.06l.067 49.38ZM414.435 291.41a10.664 10.664 0 0 1 10.76-10.732H441.9a10.845 10.845 0 0 1 7.688 3.102 10.84 10.84 0 0 1 3.244 7.63v116.019h-15.339v-8.851a11.068 11.068 0 0 1-3.723 6.185 10.008 10.008 0 0 1-7.003 2.666h-1.64a10.799 10.799 0 0 1-10.76-10.73v-58.096a10.826 10.826 0 0 1 3.111-7.702 10.827 10.827 0 0 1 7.65-3.233h1.64a10.893 10.893 0 0 1 10.725 9.295V295.75h-8.06v21.427h-15.066l.068-25.767ZM460.894 429.505V280.679h15.065v9.09a11.51 11.51 0 0 1 3.416-6.185 10.859 10.859 0 0 1 7.413-2.905h1.673a10.8 10.8 0 0 1 10.727 10.731v138.095h-15.065V295.75h-8.062v133.755h-15.167ZM530.378 295.75h-7.96v135.19h7.96V295.75Zm4.201-15.072a10.841 10.841 0 0 1 7.688 3.102 10.84 10.84 0 0 1 3.244 7.63v143.87a11.008 11.008 0 0 1-3.222 7.713 10.997 10.997 0 0 1-7.71 3.223h-27.328V280.678h27.328ZM552.718 280.679v165.469h26.611v-15.071h-11.546v-60.111h11.546v-15.071h-11.546V295.75h11.546v-15.071zM585.89 280.679v161.539h26.612v-15.071h-11.547V280.679zM631.664 280.611h-15.065v148.518h15.065zM662.956 295.68h-8.062v96.747h8.062V295.68Zm4.338-15.07a10.668 10.668 0 0 1 7.605 3.123 10.673 10.673 0 0 1 3.122 7.608v105.426a10.67 10.67 0 0 1-3.122 7.608 10.654 10.654 0 0 1-7.605 3.122h-16.738a10.973 10.973 0 0 1-10.932-10.73V291.34c.014-1.422.307-2.828.863-4.138a10.849 10.849 0 0 1 5.917-5.807 10.823 10.823 0 0 1 4.152-.786h16.738ZM685.912 380.056V280.61h15.065v9.09a11.617 11.617 0 0 1 3.416-6.185 10.79 10.79 0 0 1 7.447-2.905h1.64a10.793 10.793 0 0 1 10.726 10.73v88.85h-15.065v-84.51h-8.062v84.375h-15.167ZM392.231 20.14h-8.062v69.099h8.062v-69.1Zm4.134-15.071a10.836 10.836 0 0 1 10.068 6.593c.556 1.31.85 2.715.863 4.138v77.779a11 11 0 0 1-10.931 10.936h-27.329V5.068h27.33ZM429.5 116.749h7.993V67.368h-8.06l.067 49.38Zm-15.065-100.95a10.667 10.667 0 0 1 6.634-9.941 10.666 10.666 0 0 1 4.126-.79H441.9a10.836 10.836 0 0 1 10.068 6.594c.557 1.31.85 2.715.864 4.138v116.019h-15.339v-8.851a11.213 11.213 0 0 1-3.723 6.186 10.007 10.007 0 0 1-7.003 2.665h-1.64a10.799 10.799 0 0 1-10.76-10.73V62.993a10.825 10.825 0 0 1 3.111-7.702 10.824 10.824 0 0 1 7.65-3.233h1.64a10.86 10.86 0 0 1 10.725 9.26V20.14h-8.06v21.393h-15.066l.068-25.733ZM460.894 153.929V5.069h15.065v9.09a11.51 11.51 0 0 1 3.416-6.185 10.691 10.691 0 0 1 7.413-2.905h1.673a10.8 10.8 0 0 1 10.727 10.73v138.13h-15.065V20.139h-8.062v133.79h-15.167ZM530.378 20.14h-7.96v135.19h7.96V20.14Zm4.201-15.071a10.832 10.832 0 0 1 10.932 10.73v143.837a11.007 11.007 0 0 1-10.932 10.97h-27.328V5.069h27.328ZM552.718 5.069v165.469h26.611v-15.071h-11.546V95.356h11.546V80.285h-11.546V20.14h11.546V5.069zM585.89 5.069v161.539h26.612v-15.071h-11.547V5.069zM631.664 5.001h-15.065v148.518h15.065zM662.956 20.072h-8.062v96.745h8.062V20.072ZM667.294 5a10.665 10.665 0 0 1 9.93 6.614c.535 1.306.806 2.706.797 4.117v105.426a10.667 10.667 0 0 1-6.61 9.932 10.662 10.662 0 0 1-4.117.798h-16.738a10.966 10.966 0 0 1-10.932-10.73V15.73a10.842 10.842 0 0 1 6.78-9.945A10.832 10.832 0 0 1 650.556 5h16.738ZM685.912 104.446V5.001h15.065v9.09a11.82 11.82 0 0 1 3.416-6.22 10.896 10.896 0 0 1 7.447-2.87h1.64a10.8 10.8 0 0 1 10.726 10.73v88.852h-15.065V20.072h-8.062v84.374h-15.167ZM29.195 130.69h-8.028v124.017h8.028V130.69Zm4.133-15.07a10.867 10.867 0 0 1 10.966 10.73v132.697a11.041 11.041 0 0 1-10.795 11.073H6.17v-154.5h27.158ZM66.534 254.844h7.959v-41.008h-8.028l.069 41.008Zm-15.065-92.27a10.668 10.668 0 0 1 6.61-9.931 10.666 10.666 0 0 1 4.116-.799H78.9a10.825 10.825 0 0 1 10.068 6.593c.556 1.31.85 2.716.863 4.138v107.34H74.493v-8.852a11.212 11.212 0 0 1-3.69 6.186 10.248 10.248 0 0 1-7.037 2.666h-1.64A10.8 10.8 0 0 1 51.4 259.184v-49.688a10.84 10.84 0 0 1 3.1-7.691 10.837 10.837 0 0 1 7.627-3.245h1.64a10.862 10.862 0 0 1 10.726 9.26v-41.007h-8.028v22.349H51.4l.069-26.587ZM97.891 270.119v-97.907h15.1v9.056a11.55 11.55 0 0 1 3.415-6.22 10.896 10.896 0 0 1 7.448-2.87h1.64a10.8 10.8 0 0 1 10.727 10.731v87.21h-15.066v-82.836h-8.028v82.836H97.891ZM167.375 191.69h-8.028v62.983h8.028V191.69Zm4.236-15.07a10.826 10.826 0 0 1 10.068 6.593c.556 1.309.85 2.715.863 4.138v71.765a11.005 11.005 0 0 1-10.93 10.969h-27.33V176.62h27.33ZM189.718 176.996v92.953h26.611v-15.071h-11.546v-23.887h11.546V215.92h-11.546v-23.853h11.546v-15.071zM222.888 171.529v98.42h26.611v-15.071h-11.546v-83.349zM268.664 161.482h-15.065v108.467h15.065zM299.953 165.07h-7.994v89.808h7.994V165.07Zm4.34-15.071a10.658 10.658 0 0 1 9.927 6.614c.536 1.306.807 2.705.798 4.117v98.454a10.66 10.66 0 0 1-10.726 10.765h-16.705a10.97 10.97 0 0 1-10.932-10.765v-98.42a10.84 10.84 0 0 1 6.78-9.945 10.836 10.836 0 0 1 4.152-.786l16.705-.034ZM322.91 270.12V115.552h15.064v9.09a11.76 11.76 0 0 1 3.416-6.185 10.936 10.936 0 0 1 7.447-2.905h1.64a10.801 10.801 0 0 1 10.727 10.765v143.529H346.14V130.623h-8.062V270.12H322.91ZM29.195 410.675h-8.028V534.69h8.028V410.675Zm4.134-15.07a10.862 10.862 0 0 1 10.965 10.73V539.03a11.006 11.006 0 0 1-10.965 10.936H6V395.604h27.329ZM66.534 534.828h7.959v-41.01h-8.028l.069 41.01Zm-15.065-92.27a10.664 10.664 0 0 1 10.726-10.73H78.9a10.825 10.825 0 0 1 10.068 6.593c.556 1.309.85 2.715.863 4.138v107.34H74.493v-8.852a11.212 11.212 0 0 1-3.69 6.186 10.248 10.248 0 0 1-7.037 2.666h-1.64A10.8 10.8 0 0 1 51.4 539.168v-49.69a10.836 10.836 0 0 1 6.59-10.07 10.815 10.815 0 0 1 4.137-.864h1.64a10.862 10.862 0 0 1 10.726 9.26v-41.007h-8.028v22.349H51.4l.069-26.587ZM97.894 550v-97.804h15.1v9.09a11.55 11.55 0 0 1 3.415-6.22 10.892 10.892 0 0 1 7.447-2.87h1.64a10.794 10.794 0 0 1 10.726 10.73v87.075h-15.065v-82.734h-8.028V550H97.894ZM167.375 471.743h-8.028v62.982h8.028v-62.982Zm4.236-15.07a10.816 10.816 0 0 1 7.687 3.1 10.849 10.849 0 0 1 2.381 3.492c.556 1.31.85 2.716.863 4.138v71.765a11.002 11.002 0 0 1-10.931 10.97h-27.329v-93.533l27.33.068ZM189.718 456.981v92.952h26.611v-15.071h-11.546v-23.887h11.546v-15.071h-11.546v-23.853h11.546v-15.07zM222.888 451.513v98.42h26.611v-15.071h-11.546v-83.349zM268.664 441.466h-15.065v108.467h15.065zM299.953 445.054h-7.994v89.808h7.994v-89.808Zm4.34-15.072a10.668 10.668 0 0 1 7.616 3.136 10.673 10.673 0 0 1 3.11 7.63v98.454a10.663 10.663 0 0 1-10.727 10.731h-16.705a10.97 10.97 0 0 1-10.932-10.731v-98.454a10.83 10.83 0 0 1 6.772-9.976 10.846 10.846 0 0 1 4.16-.79h16.705ZM322.91 549.933V395.537h15.064v9.09a11.76 11.76 0 0 1 3.416-6.186 10.93 10.93 0 0 1 7.447-2.904h1.64a10.793 10.793 0 0 1 10.727 10.764V549.83H346.14V410.607h-8.062v139.326H322.91ZM29.231 295.75H21.17v69.099h8.062v-69.1Zm4.134-15.072a10.844 10.844 0 0 1 7.687 3.102 10.829 10.829 0 0 1 3.244 7.63v77.813a11.006 11.006 0 0 1-10.931 10.936H6.035v-99.446l27.33-.035ZM66.5 392.358h7.994v-49.38h-8.062l.068 49.38ZM51.435 291.41a10.663 10.663 0 0 1 10.76-10.732H78.9a10.844 10.844 0 0 1 7.688 3.102 10.829 10.829 0 0 1 3.244 7.63v116.019H74.494v-8.851a11.07 11.07 0 0 1-3.724 6.185 10.008 10.008 0 0 1-7.003 2.666h-1.64a10.799 10.799 0 0 1-10.76-10.73v-58.096a10.838 10.838 0 0 1 6.613-10.081 10.824 10.824 0 0 1 4.147-.854h1.64a10.893 10.893 0 0 1 10.727 9.295V295.75h-8.062v21.427H51.367l.068-25.767ZM97.894 429.505V280.679h15.065v9.09a11.51 11.51 0 0 1 3.416-6.185 10.859 10.859 0 0 1 7.413-2.905h1.673a10.8 10.8 0 0 1 10.727 10.731v138.095h-15.065V295.75h-8.062v133.755H97.894ZM167.378 295.75h-7.96v135.19h7.96V295.75Zm4.201-15.072a10.841 10.841 0 0 1 7.688 3.102 10.84 10.84 0 0 1 3.244 7.63v143.87a11.008 11.008 0 0 1-3.222 7.713 10.997 10.997 0 0 1-7.71 3.223h-27.328V280.678h27.328ZM189.718 280.679v165.469h26.611v-15.071h-11.546v-60.111h11.546v-15.071h-11.546V295.75h11.546v-15.071zM222.89 280.679v161.539h26.612v-15.071h-11.547V280.679zM268.664 280.611h-15.065v148.518h15.065zM299.956 295.68h-8.062v96.747h8.062V295.68Zm4.338-15.07a10.668 10.668 0 0 1 7.605 3.123 10.673 10.673 0 0 1 3.122 7.608v105.426a10.67 10.67 0 0 1-3.122 7.608 10.654 10.654 0 0 1-7.605 3.122h-16.738a10.973 10.973 0 0 1-10.932-10.73V291.34c.014-1.422.307-2.828.863-4.138a10.849 10.849 0 0 1 5.917-5.807 10.823 10.823 0 0 1 4.152-.786h16.738ZM322.912 380.056V280.61h15.065v9.09a11.617 11.617 0 0 1 3.416-6.185 10.79 10.79 0 0 1 7.447-2.905h1.64a10.797 10.797 0 0 1 10.726 10.73v88.85h-15.065v-84.51h-8.062v84.375h-15.167ZM29.231 20.14H21.17v69.099h8.062v-69.1Zm4.134-15.071a10.835 10.835 0 0 1 10.068 6.593c.556 1.31.85 2.715.863 4.138v77.779a11.006 11.006 0 0 1-10.931 10.935H6.035V5.07h27.33ZM66.5 116.749h7.994V67.368h-8.062l.068 49.38ZM51.435 15.799a10.666 10.666 0 0 1 6.635-9.941 10.664 10.664 0 0 1 4.126-.79H78.9a10.835 10.835 0 0 1 10.068 6.594c.557 1.31.85 2.715.864 4.138v116.019H74.494v-8.851a11.214 11.214 0 0 1-3.724 6.186 10.007 10.007 0 0 1-7.003 2.665h-1.64a10.799 10.799 0 0 1-10.76-10.73V62.993a10.837 10.837 0 0 1 6.613-10.081 10.826 10.826 0 0 1 4.147-.854h1.64a10.861 10.861 0 0 1 10.727 9.26V20.14h-8.062v21.393H51.367l.068-25.733ZM97.894 153.929V5.069h15.065v9.09a11.51 11.51 0 0 1 3.416-6.185 10.691 10.691 0 0 1 7.413-2.905h1.673a10.8 10.8 0 0 1 10.727 10.73v138.13h-15.065V20.139h-8.062v133.79H97.894ZM167.378 20.14h-7.96v135.19h7.96V20.14Zm4.201-15.071a10.832 10.832 0 0 1 10.932 10.73v143.837a11.007 11.007 0 0 1-10.932 10.97h-27.328V5.069h27.328ZM189.718 5.069v165.469h26.611v-15.071h-11.546V95.356h11.546V80.285h-11.546V20.14h11.546V5.069zM222.89 5.069v161.539h26.612v-15.071h-11.547V5.069zM268.664 5.001h-15.065v148.518h15.065zM299.956 20.072h-8.062v96.745h8.062V20.072ZM304.294 5a10.665 10.665 0 0 1 9.93 6.614c.535 1.306.806 2.706.797 4.117v105.426a10.667 10.667 0 0 1-6.61 9.932 10.662 10.662 0 0 1-4.117.798h-16.738a10.966 10.966 0 0 1-10.932-10.73V15.73a10.842 10.842 0 0 1 6.78-9.945A10.832 10.832 0 0 1 287.556 5h16.738ZM322.912 104.446V5.001h15.065v9.09a11.82 11.82 0 0 1 3.416-6.22 10.896 10.896 0 0 1 7.447-2.87h1.64a10.795 10.795 0 0 1 10.726 10.73v88.852h-15.065V20.072h-8.062v84.374h-15.167Z"/></g></svg>