<svg xmlns:xlink="http://www.w3.org/1999/xlink" xmlns="http://www.w3.org/2000/svg" class="sprite" width="327.7"  height="139.65" ><defs><symbol id="sprite-logo" viewBox="0 0 327.7 139.65"><title>logo</title><g data-name="Layer 2"><g class="cls-2"><path class="cls-3" d="M21.34 13.91h-7.43v111.64h7.43ZM25.15 0a10 10 0 0 1 10.1 9.91v119.64a10.17 10.17 0 0 1-10.1 10.1H0V0Zm30.62 125.74h7.44V62.87h-7.44ZM41.87 9.91A9.84 9.84 0 0 1 51.77 0h15.44A10 10 0 0 1 77.3 9.91v129.74H63.2v-8.19c-.38 2.48-1.9 4.19-3.42 5.72a9.26 9.26 0 0 1-6.48 2.47h-1.53a10 10 0 0 1-9.9-9.91V58.87a10 10 0 0 1 9.9-10.1h1.53c4.76 0 9.52 3.81 9.9 8.58V13.91h-7.43v25.15h-13.9Zm42.87 129.74V0h13.9v8.38a10.64 10.64 0 0 1 3-5.71A10 10 0 0 1 108.55 0h1.53A10 10 0 0 1 120 9.91v129.74h-13.93V13.91h-7.43v125.74Zm64.2-125.74h-7.43v111.64h7.43ZM152.75 0a10 10 0 0 1 10.1 9.91v119.64a10.16 10.16 0 0 1-10.1 10.1H127.6V0Z"></path></g><path class="cls-3" d="M169.47 0v139.65h24.58v-13.91h-10.67V76.78h10.67V62.87h-10.67V13.91h10.67V0h-24.58zm30.62 0v139.65h24.58v-13.91H214V0h-13.91zm28.34 0h13.91v139.65h-13.91z"></path><g class="cls-2"><path class="cls-3" d="M271.3 13.91h-7.43v111.83h7.43Zm4-13.91a9.84 9.84 0 0 1 9.91 9.91v119.83a9.84 9.84 0 0 1-9.91 9.91h-15.43a10.13 10.13 0 0 1-10.1-9.91V9.91A10 10 0 0 1 259.87 0Zm17.15 139.65V0h13.91v8.38a10.51 10.51 0 0 1 3.05-5.71A10 10 0 0 1 316.27 0h1.52a10 10 0 0 1 9.91 9.91v129.74h-13.91V13.91h-7.43v125.74Z"></path></g></g></symbol></defs>
        <use xlink:href="#sprite-logo" href="#sprite-logo" fill="#2E5641"></use>
    </svg>